<svg id="Capa_1" data-name="Capa 1" xmlns="http://www.w3.org/2000/svg" viewBox="0 0 289 268.7"><defs><style>.cls-1,.cls-2,.cls-3{fill:#555;stroke:#fff;stroke-miterlimit:10;}.cls-2{stroke-width:7px;}.cls-3{stroke-width:4px;}</style></defs><path class="cls-1" d="M60.49,195.35s-16.12,0-16.12-16.12,16.12-64.49,96.73-64.49,96.74,48.37,96.74,64.49-16.13,16.12-16.13,16.12ZM141.1,98.62A48.37,48.37,0,1,0,92.73,50.25,48.38,48.38,0,0,0,141.1,98.62"/><path class="cls-2" d="M141.1,91.46C127.74,80,108.36,78.26,90.72,80c-20.55,2.08-41.28,9.12-54.2,15a6.78,6.78,0,0,0-4,6.17V250.46a6.81,6.81,0,0,0,9.6,6.18c12-5.43,31.25-12,49.93-13.85,19.12-1.92,35.15,1.18,43.74,11.91a6.79,6.79,0,0,0,10.58,0C155,244,171,240.87,190.12,242.79c18.7,1.89,38,8.42,49.95,13.85a6.78,6.78,0,0,0,9-3.37,6.64,6.64,0,0,0,.61-2.81V101.19a6.77,6.77,0,0,0-4-6.17C232.77,89.14,212,82.1,191.49,80c-17.64-1.78-37,0-50.39,11.44"/><path class="cls-3" d="M47.87,188c-3.3,3.4-14.3,4.17-17,0-6.2-9.56-6.83-40.73,0-49.56,3-3.85,14-3.82,17,0C54.77,147.23,55.46,180.25,47.87,188Z"/><path class="cls-3" d="M252.1,179.63c-3.3,3.4-14.3,4.17-17,0-6.2-9.56-6.83-40.73,0-49.56,3-3.86,14-3.82,17,0C259,138.83,259.68,171.85,252.1,179.63Z"/></svg>