<svg id="Capa_1" data-name="Capa 1" xmlns="http://www.w3.org/2000/svg" viewBox="0 0 117 114.15"><defs><style>.cls-1,.cls-2{fill:#555;}.cls-1{fill-rule:evenodd;}</style></defs><path class="cls-1" d="M58.71,54.82c9.57-9.83,33.47,7.37,0,29.49C25.24,62.2,49.15,45,58.71,54.82"/><path class="cls-2" d="M63.16,13.51a6.58,6.58,0,0,0-9.32,0L10,57.35A3.3,3.3,0,0,0,14.65,62h0l4.27-4.26V92.68a9.89,9.89,0,0,0,9.89,9.89H88.19a9.89,9.89,0,0,0,9.89-9.89V57.76L102.35,62A3.3,3.3,0,1,0,107,57.35L91.49,41.83V20.1a3.29,3.29,0,0,0-3.3-3.29h-6.6a3.29,3.29,0,0,0-3.3,3.29v8.54ZM91.49,51.16V92.68A3.29,3.29,0,0,1,88.19,96H28.81a3.29,3.29,0,0,1-3.3-3.29V51.16l33-33Z"/></svg>