<svg id="Capa_1" data-name="Capa 1" xmlns="http://www.w3.org/2000/svg" viewBox="0 0 117 114.15"><defs><style>.cls-1{fill:#555;stroke:#fff;stroke-miterlimit:10;stroke-width:2px;}</style></defs><path class="cls-1" d="M31.11,77.17s-5.44,0-5.44-5.43S31.11,50,58.28,50s32.6,16.3,32.6,21.74-5.43,5.43-5.43,5.43Zm27.17-32.6A16.31,16.31,0,1,0,42,28.26a16.31,16.31,0,0,0,16.3,16.31"/><path class="cls-1" d="M58.28,42.15c-4.51-3.87-11-4.45-17-3.85A62.26,62.26,0,0,0,23,43.35a2.28,2.28,0,0,0-1.34,2.08V95.75A2.28,2.28,0,0,0,24,98a2.37,2.37,0,0,0,.94-.2,58.13,58.13,0,0,1,16.83-4.67c6.45-.65,11.85.4,14.75,4a2.28,2.28,0,0,0,3.21.36,2.38,2.38,0,0,0,.35-.36c2.9-3.61,8.3-4.66,14.74-4a58,58,0,0,1,16.84,4.67,2.3,2.3,0,0,0,3-1.14,2.33,2.33,0,0,0,.2-.94V45.43a2.28,2.28,0,0,0-1.34-2.08A62.26,62.26,0,0,0,75.26,38.3c-5.94-.6-12.48,0-17,3.85"/><path class="cls-1" d="M26.86,74.7c-1.12,1.15-4.82,1.41-5.73,0C19,71.48,18.82,61,21.13,58c1-1.3,4.71-1.29,5.73,0C29.18,61,29.41,72.08,26.86,74.7Z"/><path class="cls-1" d="M95.69,71.87c-1.11,1.15-4.82,1.41-5.73,0-2.09-3.22-2.3-13.73,0-16.7,1-1.3,4.72-1.29,5.73,0C98,58.12,98.25,69.25,95.69,71.87Z"/></svg>