<svg id="Capa_1" data-name="Capa 1" xmlns="http://www.w3.org/2000/svg" viewBox="0 0 289 268.7"><defs><style>.cls-1{fill:#555;}</style></defs><path class="cls-1" d="M129,227.6s-15.54,0-15.54-15.54,15.54-62.17,77.7-62.17,77.71,46.63,77.71,62.17-15.54,15.54-15.54,15.54Zm62.16-93.25A46.63,46.63,0,1,0,144.5,87.72a46.62,46.62,0,0,0,46.62,46.63M101.23,227.6a34.76,34.76,0,0,1-3.35-15.54c0-21.06,10.56-42.74,30.08-57.82a98.27,98.27,0,0,0-30.08-4.35c-62.17,0-77.71,46.63-77.71,62.17S35.71,227.6,35.71,227.6ZM90.1,134.35A38.86,38.86,0,1,0,51.25,95.5,38.86,38.86,0,0,0,90.1,134.35"/></svg>