<svg id="Capa_1" data-name="Capa 1" xmlns="http://www.w3.org/2000/svg" viewBox="0 0 289 268.7"><defs><style>.cls-1{fill:#555;}</style></defs><path class="cls-1" d="M30.94,43.39A15.94,15.94,0,0,1,46.88,27.45H238.12a15.94,15.94,0,0,1,15.94,15.94ZM142.5,170.89A31.88,31.88,0,1,0,110.62,139a31.88,31.88,0,0,0,31.88,31.88"/><path class="cls-1" d="M15,75.26A15.94,15.94,0,0,1,30.94,59.32H254.06A15.94,15.94,0,0,1,270,75.26v127.5a15.94,15.94,0,0,1-15.94,15.94H30.94A15.94,15.94,0,0,1,15,202.76Zm47.81,0a31.87,31.87,0,0,1-31.87,31.88v63.75a31.87,31.87,0,0,1,31.87,31.87H222.19a31.87,31.87,0,0,1,31.87-31.87V107.14a31.87,31.87,0,0,1-31.87-31.88Z"/></svg>