<svg id="Capa_1" data-name="Capa 1" xmlns="http://www.w3.org/2000/svg" viewBox="0 0 117 114.15"><defs><style>.cls-1{fill:#555;}</style></defs><path class="cls-1" d="M52.67,92s-5.83,0-5.83-5.83S52.67,62.9,76,62.9s29.14,17.49,29.14,23.31S99.3,92,99.3,92ZM76,57.07A17.49,17.49,0,1,0,58.5,39.59,17.48,17.48,0,0,0,76,57.07M42.27,92A13,13,0,0,1,41,86.21c0-7.89,4-16,11.28-21.68A36.84,36.84,0,0,0,41,62.9c-23.32,0-29.14,17.49-29.14,23.31S17.7,92,17.7,92Zm-4.17-35A14.57,14.57,0,1,0,23.53,42.5,14.57,14.57,0,0,0,38.1,57.07"/></svg>