<svg id="Capa_1" data-name="Capa 1" xmlns="http://www.w3.org/2000/svg" viewBox="0 0 289 268.7"><defs><style>.cls-1,.cls-2{fill:#555;}.cls-1{fill-rule:evenodd;}</style></defs><path class="cls-1" d="M146.16,128.73c26.53-27.27,92.84,20.45,0,81.79-92.84-61.34-26.52-109.06,0-81.79"/><path class="cls-2" d="M159.16,13.08a18.39,18.39,0,0,0-26,0L11,135.21a9.2,9.2,0,0,0,13,13h0L35.9,136.33V233.6a27.57,27.57,0,0,0,27.57,27.57H228.86a27.57,27.57,0,0,0,27.56-27.57V136.33l11.87,11.89a9.2,9.2,0,1,0,13-13L238.05,92V31.46a9.19,9.19,0,0,0-9.19-9.19H210.48a9.19,9.19,0,0,0-9.19,9.19V55.22ZM238.05,118V233.6a9.2,9.2,0,0,1-9.19,9.19H63.47a9.19,9.19,0,0,1-9.19-9.19V118l91.88-91.89Z"/></svg>