<svg id="Capa_1" data-name="Capa 1" xmlns="http://www.w3.org/2000/svg" viewBox="0 0 117 114.15"><defs><style>.cls-1{fill:#555;}</style></defs><path class="cls-1" d="M20.88,28.12a5.36,5.36,0,0,1,5.37-5.37h64.5a5.36,5.36,0,0,1,5.37,5.37Zm37.62,43A10.75,10.75,0,1,0,47.75,60.37,10.75,10.75,0,0,0,58.5,71.12"/><path class="cls-1" d="M15.5,38.87a5.37,5.37,0,0,1,5.38-5.37H96.12a5.37,5.37,0,0,1,5.38,5.37v43a5.38,5.38,0,0,1-5.38,5.38H20.88a5.38,5.38,0,0,1-5.38-5.38Zm16.12,0A10.74,10.74,0,0,1,20.88,49.62v21.5A10.74,10.74,0,0,1,31.62,81.87H85.38A10.74,10.74,0,0,1,96.12,71.12V49.62A10.74,10.74,0,0,1,85.38,38.87Z"/></svg>